<?xml version="1.0"?>
<svg width="640" height="480" xmlns="http://www.w3.org/2000/svg" xmlns:svg="http://www.w3.org/2000/svg">
 <!-- Created with SVG-edit - https://github.com/SVG-Edit/svgedit-->
 <g class="layer">
  <title>Layer 1</title>
  <ellipse cx="276.874997" cy="220.624995" fill="#003f7f" id="svg_7" opacity="0.8" rx="162.500006" ry="147.499988" stroke="#000000" stroke-dasharray="null" stroke-linecap="null" stroke-linejoin="null" stroke-width="16"/>
  <line fill="none" id="svg_1" opacity="0.8" stroke="#000000" stroke-dasharray="null" stroke-linecap="null" stroke-linejoin="null" stroke-width="16" x1="173.125" x2="175.625" y1="130.625" y2="253.125"/>
  <line fill="none" id="svg_2" opacity="0.8" stroke="#000000" stroke-dasharray="null" stroke-linecap="null" stroke-linejoin="null" stroke-width="16" x1="178.124997" x2="264.375" y1="195.625" y2="194.375"/>
  <line fill="none" id="svg_3" opacity="0.8" stroke="#000000" stroke-dasharray="null" stroke-linecap="null" stroke-linejoin="null" stroke-width="16" x1="256.875" x2="259.375" y1="129.375" y2="254.375"/>
  <line fill="none" id="svg_4" opacity="0.8" stroke="#000000" stroke-dasharray="null" stroke-linecap="null" stroke-linejoin="null" stroke-width="19" x1="296.875" x2="299.375" y1="191.875" y2="324.375"/>
  <line fill="none" id="svg_5" opacity="0.8" stroke="#000000" stroke-dasharray="null" stroke-linecap="null" stroke-linejoin="null" stroke-width="16" x1="286.875" x2="385.625002" y1="198.125" y2="198.125"/>
  <line fill="none" id="svg_6" opacity="0.8" stroke="#000000" stroke-dasharray="null" stroke-linecap="null" stroke-linejoin="null" stroke-width="19" x1="290.625" x2="364.375" y1="244.375" y2="243.125"/>
  <path d="m163.125,283.125061c3.008347,0 4.449677,-0.000366 5.321655,0c2.360458,0.000854 3.470459,0.001343 4.725693,0.04657c1.38916,0.050018 2.899353,0.144318 4.509644,0.326019c1.709732,0.192871 3.526199,0.391663 7.242584,1.352417c1.963425,0.507599 3.939758,1.204926 5.92627,2.033813c2.057236,0.858368 4.120117,1.878967 6.16864,3.058441c2.122375,1.221985 4.301346,2.544617 8.422318,5.832825c2.172409,1.733398 4.245193,3.673767 6.321564,5.679626c2.101929,2.030609 4.142593,4.12738 6.165756,6.222992c1.99881,2.070404 3.897369,4.145233 7.709351,7.935089c1.779724,1.769409 3.532532,3.417389 5.334793,4.88269c1.741882,1.416199 3.555145,2.693756 5.490616,3.749298c1.937973,1.056915 4.005646,2.083588 8.730072,3.15567c2.557938,0.580444 5.330307,0.827209 8.194107,0.985809c2.933441,0.162476 5.912567,0.161774 8.886505,0.069885c2.938019,-0.09082 5.803314,-0.239197 11.130615,-0.768219c2.409607,-0.239319 4.633331,-0.530273 6.679321,-0.853882c1.890717,-0.299072 3.619354,-0.655518 5.207825,-1.009125l1.453857,-0.37088l1.328796,-0.388153" fill="none" id="svg_21" opacity="0.8" stroke="#000000" stroke-dasharray="null" stroke-linecap="null" stroke-linejoin="null" stroke-width="2" transform="rotate(11.0573 225.6 305.822)"/>
  <path d="m291.600006,133.345993c0.587006,0.150009 34.838989,7.784012 35.309998,7.964005c0.230988,0.087997 0.824982,0.335007 1.199005,0.496002c0.423004,0.181 0.885986,0.384995 1.375,0.610001c0.518005,0.238998 1.049988,0.494995 1.580994,0.766998c0.540985,0.278 1.580994,0.865005 2.056,1.171005c0.471985,0.304993 0.911987,0.621994 1.322998,0.947998c0.415009,0.328995 0.803009,0.671997 1.169006,1.026001c0.376007,0.362 1.078003,1.127991 1.416992,1.531998c0.347015,0.412994 0.679016,0.834 1.01001,1.259003c0.332001,0.425995 0.653992,0.849991 0.97998,1.265991c0.319,0.408005 0.951019,1.182007 1.274017,1.541c0.307007,0.34201 0.621002,0.667007 0.940002,0.977005c0.306,0.298004 0.619995,0.584 0.936005,0.858002c0.307983,0.268005 -34.065002,-7.966003 1.253998,1.035004c35.319,9.001007 0.648987,0.5 1.005981,0.746994c0.365021,0.253006 0.761993,0.507996 1.200012,0.761993c0.459991,0.267014 1.527985,0.817001 2.140991,1.100006c0.647003,0.300003 1.34201,0.598007 2.071991,0.895996c0.72998,0.297989 1.524017,0.605011 2.315002,0.896011c0.792999,0.291 2.384003,0.834991 3.167999,1.082001c0.765015,0.241989 1.513,0.463989 2.239014,0.669998c0.695984,0.197998 1.363007,0.377991 1.993011,0.54599l13.09198,17.654007" fill="none" id="svg_25" opacity="0.8" stroke="#000000" stroke-dasharray="null" stroke-linecap="null" stroke-linejoin="null" stroke-width="2" transform="rotate(-0.195889 332.125 156.247)"/>
 </g>
</svg>